<?xml version="1.0" encoding="UTF-8"?>
<!DOCTYPE svg PUBLIC "-//W3C//DTD SVG 1.0//EN" "http://www.w3.org/TR/2001/REC-SVG-20010904/DTD/svg10.dtd">
<!-- Creator: CorelDRAW 2021.5 -->
<svg xmlns="http://www.w3.org/2000/svg" xml:space="preserve" width="500px" height="300px" version="1.0" style="shape-rendering:geometricPrecision; text-rendering:geometricPrecision; image-rendering:optimizeQuality; fill-rule:evenodd; clip-rule:evenodd"
viewBox="0 0 500 300"
 xmlns:xlink="http://www.w3.org/1999/xlink"
 xmlns:xodm="http://www.corel.com/coreldraw/odm/2003">
 <defs>
  <style type="text/css">
   <![CDATA[
    .fil0 {fill:#02D4FF;fill-rule:nonzero}
   ]]>
  </style>
 </defs>
 <g id="Слой_x0020_1">
  <metadata id="CorelCorpID_0Corel-Layer"/>
  <path class="fil0" d="M89.14 84.02l20.75 0 0 118.08 -20.75 0c0,-0.56 0,-1.26 0,-2.11 0,-0.84 0,-2.19 0,-4.05 0,-1.85 0,-3.37 0,-4.55 0,-1.18 0,-1.77 0,-1.77 0,0 -0.31,0.45 -0.93,1.35 -0.62,0.9 -1.18,1.63 -1.69,2.19 -0.5,0.56 -1.23,1.29 -2.19,2.19 -0.96,0.9 -2.08,1.77 -3.37,2.62 -1.3,0.84 -2.73,1.54 -4.31,2.11 -7.08,2.92 -15.07,2.92 -23.95,0 -9.11,-2.82 -16.5,-8.13 -22.18,-15.95 -5.68,-7.81 -8.52,-16.44 -8.52,-25.89 0,-12.14 4.3,-22.52 12.9,-31.12 8.61,-8.61 18.98,-12.91 31.13,-12.91 4.38,0 8.74,0.93 13.07,2.79 4.33,1.85 7.68,4.3 10.04,7.34 0,0 0,-3.38 0,-10.13 0,-6.74 0,-13.44 0,-20.07l0 -10.12zm-39.48 90.58c4.5,4.5 9.93,6.75 16.28,6.75 6.36,0 11.81,-2.25 16.37,-6.75 4.55,-4.49 6.83,-9.95 6.83,-16.36 0,-6.41 -2.28,-11.86 -6.83,-16.36 -4.56,-4.5 -10.01,-6.75 -16.37,-6.75 -6.35,0 -11.78,2.25 -16.28,6.75 -4.49,4.5 -6.74,9.95 -6.74,16.36 0,6.41 2.25,11.87 6.74,16.36z"/>
  <polygon id="_1" class="fil0" points="200.47,115.23 200.47,135.81 154.76,181.18 200.47,181.18 200.47,201.93 125.57,201.93 125.57,180.85 170.45,135.97 125.57,135.97 125.57,115.23 "/>
  <polygon id="_2" class="fil0" points="287.85,115.23 287.85,135.81 242.14,181.18 287.85,181.18 287.85,201.93 212.95,201.93 212.95,180.85 257.83,135.97 212.95,135.97 212.95,115.23 "/>
  <path id="_3" class="fil0" d="M383.16 159.25c-0.11,2.81 -0.22,4.9 -0.34,6.24l-62.41 0c1.69,5.18 4.83,9.28 9.45,12.32 4.61,3.04 9.67,4.22 15.18,3.54 6.75,-0.79 12.14,-3.93 16.19,-9.44l16.87 12.31c-3.71,4.95 -8.24,9 -13.58,12.14 -5.34,3.15 -11.05,5.07 -17.12,5.74 -8.44,0.9 -16.42,-0.45 -23.96,-4.05 -7.53,-3.6 -13.57,-8.91 -18.13,-15.94 -4.55,-7.03 -6.83,-14.87 -6.83,-23.53 -0.11,-13.05 4.41,-23.9 13.58,-32.56 9.16,-8.66 20.49,-12.48 33.99,-11.47 3.04,0.23 6.02,0.84 8.94,1.86 3.6,1.35 6.94,3.15 10.04,5.39 3.09,2.25 5.62,4.61 7.59,7.09 1.97,2.47 3.43,4.47 4.38,5.99 0.96,1.52 1.72,2.89 2.28,4.13 0.34,0.67 0.62,1.35 0.84,2.02 2.25,5.52 3.27,11.59 3.04,18.22zm-61.57 -14l38.46 0c0,0 -0.11,-0.19 -0.34,-0.59 -0.22,-0.39 -0.42,-0.73 -0.59,-1.01 -0.17,-0.28 -0.45,-0.67 -0.84,-1.18 -0.39,-0.51 -0.79,-0.96 -1.18,-1.35 -0.4,-0.39 -0.84,-0.84 -1.35,-1.35 -0.51,-0.51 -1.07,-0.98 -1.69,-1.43 -0.62,-0.45 -1.29,-0.88 -2.02,-1.27 -0.73,-0.39 -1.52,-0.79 -2.36,-1.18 -0.85,-0.39 -1.72,-0.7 -2.62,-0.93 -2.36,-0.67 -5.06,-0.84 -8.1,-0.5 -7.19,0.9 -12.98,4.49 -17.37,10.79z"/>
  <path id="_4" class="fil0" d="M441.36 115.23c11.47,0 21.28,4.07 29.43,12.23 8.16,8.15 12.24,17.96 12.24,29.43l0 45.21 -20.75 0 0 -45.21c0,-5.73 -2.06,-10.65 -6.16,-14.76 -4.11,-4.1 -9.03,-6.16 -14.76,-6.16 -5.85,0 -10.91,1.92 -15.18,5.74 -4.28,3.82 -6.75,8.66 -7.43,14.51l0 45.88 -20.91 0 0 -86.87 20.91 0 0 9.78c2.82,-2.92 6.27,-5.29 10.38,-7.09 4.1,-1.79 8.18,-2.69 12.23,-2.69z"/>
 </g>
</svg>
